<svg width="2048" height="2059" viewBox="0 0 2048 2059" fill="none" xmlns="http://www.w3.org/2000/svg">
<path d="M1494.55 1744.77L1353.93 1703.92L1422.83 1646.8L1423.47 1646.27L1423.97 1645.57L1481.29 1565.8L1574.27 1609.7L1574.27 1974.28L1556.59 1932.28L1497.99 1748.39L1497.07 1745.5L1494.55 1744.77Z" stroke="black" stroke-width="12"/>
<path d="M1482.03 1546.52C1421.25 1682.71 1296.99 1757.5 1143.75 1767.05C990.532 1776.6 809.123 1720.75 636.093 1596.68C463.062 1472.61 331.851 1304.29 259.381 1132.92C186.9 961.52 173.468 787.991 234.25 651.801C295.032 515.611 419.293 440.814 572.532 431.265C725.749 421.718 907.157 477.562 1080.19 601.632C1253.22 725.703 1384.43 894.021 1456.9 1065.4C1529.38 1236.8 1542.81 1410.33 1482.03 1546.52Z" stroke="black" stroke-width="20"/>
<path d="M1148 659.832C1164 478.333 1202.5 417.333 1284 239.832" stroke="black" stroke-width="29"/>
<path d="M1283.87 249.079C1564.12 217.012 1697.16 165.608 1889.09 11" stroke="black" stroke-width="25"/>
<path d="M1310 816.5C1326.5 687 1336 546.5 1444 358" stroke="black" stroke-width="34"/>
<path d="M1424.1 363.267C1705.15 346.552 1839.76 302.468 2036.61 158.494" stroke="black" stroke-width="24"/>
<ellipse rx="357.805" ry="130.798" transform="matrix(0.185664 0.982613 -0.956881 0.290482 1052.13 1101.39)" fill="#272626"/>
<path d="M1102.37 938.109C1132.38 1005.82 1140.31 1072.8 1120.09 1087.71C1099.86 1102.63 1085.29 1000.68 1055.28 932.97C1025.28 865.261 991.188 857.431 1011.41 842.516C1031.64 827.602 1072.36 870.4 1102.37 938.109Z" fill="#C4C4C4"/>
</svg>
