<svg width="689" height="371" viewBox="0 0 689 371" fill="none" xmlns="http://www.w3.org/2000/svg">
<path d="M572 142V29C572 15.7452 561.255 5 548 5H344H140C126.745 5 116 15.7452 116 29V142" stroke="black" stroke-width="10"/>
<path d="M26 146H663C675.15 146 685 155.85 685 168V339C685 354.464 672.464 367 657 367H32C16.536 367 4 354.464 4 339V168C4 155.85 13.8497 146 26 146Z" stroke="black" stroke-width="8"/>
<path d="M116 21V54.7438C116 55.3866 116.598 55.8625 117.224 55.7183L159.163 46.0686C167.942 44.0488 177.062 44.0315 185.848 46.0179L216.531 52.9547C225.394 54.9587 234.597 54.9231 243.445 52.8506L272.168 46.1229C280.943 44.0674 290.069 44.0153 298.867 45.9705L330.694 53.0431C339.453 54.9896 348.537 54.9467 357.278 52.9177L386.666 46.0953C395.443 44.0579 404.565 44.0232 413.357 45.9938L444.933 53.0713C453.539 55 462.463 55.0082 471.072 53.0951L503.133 45.9705C511.931 44.0153 521.057 44.0674 529.832 46.1229L570.772 55.7123C571.399 55.8593 572 55.3831 572 54.7387V21" stroke="black" stroke-width="6"/>
<path d="M25 146H664C675.598 146 685 155.402 685 167V199.731L647.854 189.366C619.905 181.567 590.38 181.37 562.329 188.796L556.592 190.315C530.487 197.226 503.029 197.196 476.939 190.23L471.896 188.883C443.871 181.4 414.356 181.531 386.399 189.263L384.908 189.675C358.43 196.997 330.483 197.151 303.926 190.121L298.921 188.796C270.867 181.369 241.228 181.6 213.281 189.398C186.483 196.876 158.054 197.034 131.195 189.8L128.126 188.973C100.123 181.431 70.6151 181.497 42.6459 189.163L4 199.756V167C4 155.402 13.402 146 25 146Z" stroke="black" stroke-width="8"/>
</svg>
