<svg width="331" height="497" viewBox="0 0 331 497" fill="none" xmlns="http://www.w3.org/2000/svg">
<rect x="27" y="4" width="258" height="28" stroke="black" stroke-width="8"/>
<path d="M26.7452 30.5H282.154L267.262 75.4605C260.796 94.9843 257.5 115.418 257.5 135.985V350.5V471C257.5 480.017 261.545 488.089 267.92 493.5H48.835C24.3182 493.5 4.41971 473.67 4.33532 449.153L3.5 206.5V206.494V125.587C3.5 112.597 5.35431 99.6733 9.00682 87.2072L25.3057 31.5782C25.493 30.9391 26.0792 30.5 26.7452 30.5ZM287.811 35.6841L310.897 77.3449C321.459 96.4049 327 117.838 327 139.628V206.5V350.5V453.5C327 475.591 309.091 493.5 287 493.5C274.574 493.5 264.5 483.426 264.5 471V350.5V135.985C264.5 116.166 267.676 96.4752 273.907 77.6614L287.811 35.6841Z" stroke="black" stroke-width="7"/>
<path d="M7 186H260M260 263H7" stroke="black" stroke-width="6"/>
<path d="M65.5443 250.72C62.3763 250.72 59.6163 250.12 57.2643 248.92C54.9603 247.72 53.1603 245.992 51.8643 243.736C50.6163 241.432 49.9923 238.72 49.9923 235.6V211.84C49.9923 208.672 50.6163 205.96 51.8643 203.704C53.1603 201.448 54.9603 199.72 57.2643 198.52C59.6163 197.32 62.3763 196.72 65.5443 196.72C68.7123 196.72 71.4483 197.344 73.7523 198.592C76.0563 199.792 77.8323 201.52 79.0803 203.776C80.3283 206.032 80.9523 208.72 80.9523 211.84H74.4723C74.4723 208.864 73.6803 206.584 72.0963 205C70.5603 203.368 68.3763 202.552 65.5443 202.552C62.7123 202.552 60.4803 203.344 58.8483 204.928C57.2643 206.512 56.4723 208.792 56.4723 211.768V235.6C56.4723 238.576 57.2643 240.88 58.8483 242.512C60.4803 244.096 62.7123 244.888 65.5443 244.888C68.3763 244.888 70.5603 244.096 72.0963 242.512C73.6803 240.88 74.4723 238.576 74.4723 235.6H80.9523C80.9523 238.672 80.3283 241.36 79.0803 243.664C77.8323 245.92 76.0563 247.672 73.7523 248.92C71.4483 250.12 68.7123 250.72 65.5443 250.72ZM108.428 250.72C105.26 250.72 102.524 250.12 100.22 248.92C97.9641 247.72 96.2121 245.992 94.9641 243.736C93.7641 241.432 93.1641 238.72 93.1641 235.6V211.84C93.1641 208.672 93.7641 205.96 94.9641 203.704C96.2121 201.448 97.9641 199.72 100.22 198.52C102.524 197.32 105.26 196.72 108.428 196.72C111.596 196.72 114.308 197.32 116.564 198.52C118.868 199.72 120.62 201.448 121.82 203.704C123.068 205.96 123.692 208.648 123.692 211.768V235.6C123.692 238.72 123.068 241.432 121.82 243.736C120.62 245.992 118.868 247.72 116.564 248.92C114.308 250.12 111.596 250.72 108.428 250.72ZM108.428 244.888C111.26 244.888 113.42 244.096 114.908 242.512C116.444 240.88 117.212 238.576 117.212 235.6V211.84C117.212 208.864 116.444 206.584 114.908 205C113.42 203.368 111.26 202.552 108.428 202.552C105.644 202.552 103.484 203.368 101.948 205C100.412 206.584 99.6441 208.864 99.6441 211.84V235.6C99.6441 238.576 100.412 240.88 101.948 242.512C103.484 244.096 105.644 244.888 108.428 244.888ZM136.624 250V197.44H153.544C156.808 197.44 159.64 198.088 162.04 199.384C164.44 200.632 166.288 202.408 167.584 204.712C168.928 207.016 169.6 209.752 169.6 212.92C169.6 216.04 168.928 218.776 167.584 221.128C166.288 223.432 164.44 225.232 162.04 226.528C159.64 227.776 156.808 228.4 153.544 228.4H143.104V250H136.624ZM143.104 222.568H153.544C156.376 222.568 158.632 221.704 160.312 219.976C162.04 218.2 162.904 215.848 162.904 212.92C162.904 209.944 162.04 207.592 160.312 205.864C158.632 204.136 156.376 203.272 153.544 203.272H143.104V222.568ZM191.532 250V230.344L175.692 197.44H182.388L192.828 219.04C193.404 220.24 193.86 221.272 194.196 222.136C194.532 222.952 194.748 223.552 194.844 223.936C194.94 223.552 195.156 222.952 195.492 222.136C195.876 221.272 196.356 220.24 196.932 219.04L207.156 197.44H213.852L198.012 230.344V250H191.532Z" fill="black"/>
</svg>
