<svg width="1700" height="414" viewBox="0 0 1700 414" fill="none" xmlns="http://www.w3.org/2000/svg">
<circle cx="384" cy="70" r="70" fill="black"/>
<path d="M377.422 103.149V50.3494H359.522V37.9494H410.122V50.3494H392.222V103.149H377.422Z" fill="#B73939"/>
<path d="M555.155 140V34.4H519.355V9.6H620.555V34.4H584.755V140H555.155ZM640.888 140V9.6H722.488V34.4H670.288V60.6H714.688V85.2H670.288V115.2H724.488V140H640.888ZM790.259 142.4C781.725 142.4 773.192 140.867 764.659 137.8C756.259 134.6 748.725 129.867 742.059 123.6L758.859 103.4C763.525 107.4 768.659 110.667 774.259 113.2C779.992 115.733 785.592 117 791.059 117C797.192 117 801.725 115.867 804.659 113.6C807.725 111.333 809.259 108.267 809.259 104.4C809.259 102.4 808.792 100.667 807.859 99.2C807.059 97.7333 805.792 96.4667 804.059 95.4C802.459 94.2 800.459 93.1333 798.059 92.2C795.792 91.1333 793.259 90 790.459 88.8L773.459 81.6C770.125 80.2667 766.859 78.5333 763.659 76.4C760.592 74.2667 757.792 71.8 755.259 69C752.859 66.0667 750.925 62.7333 749.459 59C747.992 55.1333 747.259 50.8 747.259 46C747.259 40.6667 748.392 35.6667 750.659 31C752.925 26.2 756.125 22.0667 760.259 18.6C764.392 15 769.259 12.2 774.859 10.2C780.592 8.19999 786.859 7.19999 793.659 7.19999C801.259 7.19999 808.725 8.66666 816.059 11.6C823.525 14.5333 830.059 18.8 835.659 24.4L820.659 43C816.392 39.6667 812.125 37.1333 807.859 35.4C803.592 33.5333 798.859 32.6 793.659 32.6C788.592 32.6 784.525 33.6667 781.459 35.8C778.525 37.8 777.059 40.6667 777.059 44.4C777.059 46.4 777.525 48.1333 778.459 49.6C779.525 50.9333 780.925 52.2 782.659 53.4C784.525 54.4667 786.659 55.5333 789.059 56.6C791.459 57.5333 794.059 58.6 796.859 59.8L813.659 66.6C821.659 69.8 827.925 74.2 832.459 79.8C837.125 85.4 839.459 92.8 839.459 102C839.459 107.467 838.325 112.667 836.059 117.6C833.925 122.4 830.725 126.667 826.459 130.4C822.325 134 817.192 136.933 811.059 139.2C804.925 141.333 797.992 142.4 790.259 142.4ZM883.085 140V34.4H847.285V9.6H948.485V34.4H912.685V140H883.085ZM968.818 140V9.6H1050.42V34.4H998.218V60.6H1042.62V85.2H998.218V115.2H1052.42V140H968.818ZM1078.39 140V9.6H1125.39C1132.32 9.6 1138.79 10.2667 1144.79 11.6C1150.92 12.9333 1156.25 15.2 1160.79 18.4C1165.32 21.4667 1168.92 25.6 1171.59 30.8C1174.25 36 1175.59 42.4667 1175.59 50.2C1175.59 59.8 1173.45 67.7333 1169.19 74C1165.05 80.1333 1159.45 84.7333 1152.39 87.8L1181.99 140H1148.99L1123.99 93H1107.79V140H1078.39ZM1107.79 69.6H1122.99C1130.72 69.6 1136.59 68 1140.59 64.8C1144.72 61.4667 1146.79 56.6 1146.79 50.2C1146.79 43.8 1144.72 39.3333 1140.59 36.8C1136.59 34.2667 1130.72 33 1122.99 33H1107.79V69.6Z" fill="black"/>
</svg>
